Coordinates
version=1
nRows=14
nColumns=36
inDegrees=yes

Units are S.I. units (second, meters, Newtons, ...)
If the header above contains a line with 'inDegrees', this indicates whether rotational values are in degrees (yes) or radians (no).

endheader
time	pelvis_tilt	pelvis_list	pelvis_rotation	pelvis_tx	pelvis_ty	pelvis_tz	hip_flexion_r	hip_adduction_r	hip_rotation_r	knee_angle_r	knee_angle_r_beta	ankle_angle_r	subtalar_angle_r	mtp_angle_r	hip_flexion_l	hip_adduction_l	hip_rotation_l	knee_angle_l	knee_angle_l_beta	ankle_angle_l	subtalar_angle_l	mtp_angle_l	lumbar_extension	lumbar_bending	lumbar_rotation	arm_flex_r	arm_add_r	arm_rot_r	elbow_flex_r	pro_sup_r	arm_flex_l	arm_add_l	arm_rot_l	elbow_flex_l	pro_sup_l
     29.85000000	     -5.44074080	     -2.35304632	     -1.55490153	      0.84611666	      0.94224612	      0.78621272	     22.62100261	      4.50163198	      7.88744066	     25.70869926	      0.44870145	     12.43481163	     -3.83264122	     -7.49999987	     11.85303010	     -4.45526657	      1.12983121	     59.48944640	      1.03828671	     -6.72690171	    -14.60161922	     -7.49999987	    -20.24471070	      5.80912627	      0.05269177	      7.49635200	    -15.34421043	      6.35233336	     25.56119925	     75.99671627	      9.92348946	    -10.16766163	      8.01429354	     23.89690226	     71.80932678
     29.86666670	     -5.14047905	     -1.52452065	     -1.13897917	      0.84393454	      0.95144594	      0.78963645	     20.17917130	      3.53160452	      7.68217458	     24.21148895	      0.42257020	     13.42762260	     -3.17940552	     -7.49999987	     14.33316458	     -3.53189366	      1.11412561	     59.81376421	      1.04394712	     -3.73371218	    -15.68394551	     -7.49999987	    -20.57092713	      4.82245288	      0.68168399	      7.80261317	    -15.32258728	      6.63851968	     25.85343313	     75.18982438	      9.59396297	     -9.98422216	      8.01338856	     23.38942040	     71.21818057
     29.88333330	     -4.94274679	     -0.66763483	     -1.00910519	      0.83968818	      0.95988547	      0.79103822	     17.91577707	      2.56245017	      7.26367883	     22.42287993	      0.39135308	     13.84824412	     -2.21719122	     -7.49999987	     16.73062175	     -2.71013543	      0.74177541	     59.14557582	      1.03228504	     -1.63049721	    -15.27503497	     -7.49999987	    -20.89525556	      3.67544918	      1.65147375	      8.17766039	    -15.52040993	      8.23553366	     25.99397950	     74.99047689	      9.72441776	     -9.94303267	      9.25063125	     22.44396723	     71.50763619
     29.90000000	     -4.63035242	      0.22225706	     -1.03123633	      0.83462900	      0.96607760	      0.79046491	     15.71729266	      1.52429559	      6.75002743	     20.64264605	      0.36028214	     13.57653862	     -1.40495507	     -7.49999987	     18.64858706	     -1.82390616	      0.14379637	     57.40505052	      1.00190714	     -0.63758335	    -14.77907068	     -7.49999987	    -21.58178020	      2.52465230	      2.56496734	      8.64497751	    -15.61324945	      8.77566909	     26.46971053	     73.94740939	      9.65340335	     -9.88183158	      9.56971606	     22.44596850	     70.83803174
     29.91666670	     -4.80481997	      1.03632188	     -0.97758424	      0.83095497	      0.96963177	      0.78952272	     14.32502399	      0.52774176	      6.22977215	     19.24321086	      0.33585739	     12.83218636	     -1.01134432	     -7.49999987	     20.82224514	     -0.94988069	     -0.49388621	     54.98958277	      0.95974927	     -0.08699929	    -14.52796451	     -7.49999987	    -21.71470180	      1.61538525	      3.27233175	      9.24312666	    -15.66531764	      8.87989731	     26.67116014	     74.01658830	      9.45222267	     -9.67923567	      9.59602417	     22.31511502	     70.86641826
     29.93333330	     -4.27017090	      1.90445880	     -1.09660541	      0.82905792	      0.97253879	      0.78966710	     12.38371760	     -0.50994393	      5.81567100	     18.23165467	      0.31820240	     12.76562543	     -0.01487932	     -7.49999987	     21.77293915	     -0.25477435	     -1.67716902	     51.79108909	      0.90392503	      0.88868487	    -13.57083987	     -7.49999987	    -22.89113121	      0.44638487	      4.33418028	      9.42829155	    -15.90423064	      9.11962307	     28.24261438	     73.13775904	      9.29516934	     -9.58519245	      9.32897287	     23.36600341	     70.05503509
     29.95000000	     -4.08952818	      2.50720617	     -1.08007346	      0.82759480	      0.97287170	      0.78950986	     11.05229601	     -1.25754521	      5.50650078	     17.68199918	      0.30860910	     12.79526022	      0.46363364	     -7.49999987	     22.99991973	      0.14874493	     -2.68171458	     48.47120189	      0.84598207	      1.54680184	    -12.86720210	     -7.49999987	    -23.55846040	     -0.31643375	      5.26022320	      9.70481656	    -16.21352338	      9.33859806	     29.71767712	     72.43077093	      9.02306502	     -9.31298054	      8.99171367	     23.94156721	     69.36843880
     29.96666670	     -3.95038950	      2.91548368	     -1.01818533	      0.82635363	      0.97086982	      0.78928586	      9.96789788	     -1.78652333	      5.26522017	     17.56271705	      0.30652724	     13.24818368	      1.05733326	     -7.49999987	     24.22127212	      0.26313271	     -3.58132563	     45.10897414	      0.78730012	      2.10325252	    -12.04842487	     -7.49999987	    -24.08331525	     -0.85186240	      6.10956495	      9.97102083	    -16.55794536	      9.67760821	     31.13495132	     72.38661014	      8.70939716	     -8.99218583	      8.61662945	     24.21534141	     69.19241047
     29.98333330	     -3.94413552	      3.16165040	     -0.80055627	      0.82579013	      0.96824598	      0.78927395	      9.07163148	     -2.14743345	      4.99884390	     17.58936519	      0.30699234	     13.68287335	      1.44286243	     -7.49999987	     25.62560122	      0.25446981	     -4.00239132	     41.74689201	      0.72862072	      2.47964585	    -11.36950128	     -7.49999987	    -24.30735682	     -1.17658670	      6.69679786	     10.27812688	    -16.69759504	      9.89051802	     32.07384643	     72.36010749	      8.21713040	     -8.73735463	      8.37480550	     24.31481486	     69.08697697
     30.00000000	     -3.55868701	      3.26274122	     -0.65476915	      0.82574695	      0.96725508	      0.78951535	      7.60376375	     -2.40376671	      4.53447790	     17.33873559	      0.30261802	     14.54565932	      2.55347355	     -7.49999987	     26.55990513	      0.05553130	     -4.25292191	     38.22175029	      0.66709539	      3.12693873	    -10.28604535	     -7.49999987	    -24.98925171	     -1.31604860	      7.23508677	     10.34064884	    -17.24494822	     10.64538499	     34.03676344	     72.14111781	      7.57318463	     -8.32309365	      7.26545415	     24.76610618	     68.77260875
     30.01666670	     -3.50325354	      3.38224061	     -0.49680005	      0.82571905	      0.96694165	      0.78981533	      6.23613249	     -2.63936911	      4.31357915	     16.68449588	      0.29119939	     15.25891678	      3.01553252	     -7.49999987	     27.73952952	     -0.10224296	     -4.32202238	     34.36851907	      0.59984382	      3.43117701	     -9.23205616	     -7.49999987	    -24.97543675	     -1.46322956	      7.57396414	     10.60870840	    -17.33279273	     10.94278353	     34.37328829	     72.18081965	      6.95726245	     -8.05034844	      7.12771898	     24.44658835	     68.79431981
     30.03333330	     -3.13714089	      3.49918096	     -0.32843743	      0.82517087	      0.96720190	      0.78970917	      4.14550366	     -2.86343658	      4.03079886	     15.46140148	      0.26985236	     16.11191919	      3.63552432	     -7.49999987	     28.40108638	     -0.19194419	     -4.32902130	     30.08062873	      0.52500601	      3.61794625	     -8.04057343	     -7.49999987	    -25.33696448	     -1.62909114	      7.77669448	     10.72115486	    -17.51966621	     11.40851013	     35.20866882	     71.47143452	      6.25327216	     -7.85873042	      6.70729319	     24.69356415	     68.21448600
     30.05000000	     -2.93359541	      3.48415595	     -0.06937803	      0.82379356	      0.96682018	      0.78886846	      2.00384696	     -2.88116922	      3.80956428	     14.01727967	      0.24464768	     16.64408824	      4.31001221	     -7.49999987	     29.17894611	     -0.33247577	     -4.23726528	     25.63137693	      0.44735192	      4.22329253	     -6.29296274	     -7.49999987	    -25.38211236	     -1.54421049	      7.68267071	     11.15749121	    -17.62330384	     12.52411943	     35.40628438	     71.74382001	      5.79873209	     -7.58625339	      6.38035864	     24.08198295	     68.42377243
     30.06666670	     -2.96822711	      3.59832571	      0.30437797	      0.82217697	      0.96489389	      0.78754618	      0.03330201	     -2.92598511	      3.95452810	     12.62920945	      0.22042129	     16.53859452	      4.63236357	     -7.49999987	     30.15729430	     -0.15843229	     -3.61611620	     21.10251711	      0.36830840	      5.04168981	     -5.01229986	     -7.49999987	    -25.18670407	     -1.58131746	      7.40937186	     11.67250067	    -17.56270436	     13.39209527	     35.45957235	     71.80543801	      5.38127647	     -7.45589923	      6.14960922	     23.80926010	     68.51939963
